<?xml version="1.0" standalone="no"?>
<svg xmlns="http://www.w3.org/2000/svg" viewBox="0 0 99.912 115.368" width="99.912" height="115.368"><polygon fill="none" stroke="#000" stroke-width="3" points="98.412,29.592 98.412,85.776 49.956,113.868 1.5,85.776 1.5,29.592 49.956,1.5"></polygon><g fill="#ffd500" color="#ffd500" transform="translate(27.956000000000003 22.5) scale(0.44)"><svg width="100.0" height="100.0" x="0.0" y="0.0" viewBox="0 0 100 100"><g><g><path d="M81.461,96H19.867c-1.135,0-2.172-0.64-2.681-1.653l-4.867-9.69C12.109,84.238,12,83.777,12,83.31V7c0-1.657,1.343-3,3-3    h70c1.657,0,3,1.343,3,3v76.31c0,0.351-0.062,0.699-0.182,1.029l-3.539,9.69C83.847,95.213,82.721,96,81.461,96z M21.718,90    h57.645L82,82.779V10H18v72.599L21.718,90z"></path></g><g><path d="M75,56H26c-1.657,0-3-1.343-3-3V17c0-1.657,1.343-3,3-3h49c1.657,0,3,1.343,3,3v36C78,54.657,76.657,56,75,56z M29,50h43    V20H29V50z"></path></g><g><g><rect x="45" y="68" width="32" height="2"></rect><path d="M77.5,71h-32c-0.828,0-1.5-0.672-1.5-1.5v-2c0-0.828,0.672-1.5,1.5-1.5h32c0.828,0,1.5,0.672,1.5,1.5v2     C79,70.328,78.328,71,77.5,71z"></path></g><g><rect x="67" y="66" width="10" height="5"></rect><path d="M77.5,72h-10c-0.828,0-1.5-0.672-1.5-1.5v-5c0-0.828,0.672-1.5,1.5-1.5h10c0.828,0,1.5,0.672,1.5,1.5v5     C79,71.328,78.328,72,77.5,72z M69,69h7v-2h-7V69z"></path></g></g><g><rect x="24" y="77" width="5" height="3"></rect><path d="M29.5,81h-5c-0.828,0-1.5-0.672-1.5-1.5v-3c0-0.828,0.672-1.5,1.5-1.5h5c0.828,0,1.5,0.672,1.5,1.5v3    C31,80.328,30.328,81,29.5,81z M26,78h2H26z"></path></g></g></svg></g><path fill="#ffd500" fill-rule="nonzero" d="M5.15 9.07L5.15 9.07Q5.96 9.88 7.10 9.88Q8.23 9.88 8.93 9.18L8.93 9.18Q10.05 8.04 10.05 5.77L10.05 5.77Q10.05 1.60 6.36 1.60L6.36 1.60Q5.18 1.60 3.72 2.21L3.72 2.21Q3.53 4.42 3.53 9.10Q3.53 13.78 3.78 16.72L3.78 16.72L5.38 16.83Q5.43 17.28 5.43 17.64Q5.43 18.00 5.35 18.37L5.35 18.37Q4.34 18.34 2.73 18.34Q1.12 18.34 0.25 18.37L0.25 18.37Q0.17 17.95 0.17 17.63Q0.17 17.30 0.22 16.80L0.22 16.80L1.20 16.72Q1.43 13.72 1.43 9.06Q1.43 4.40 1.15 2.13L1.15 2.13L0.08 2.04Q0 1.65 0 1.18Q0 0.70 0.03 0.48L0.03 0.48Q1.20 0.42 3.25 0.22L3.25 0.22Q4.68 0 6.38 0L6.38 0Q9.69 0 11.09 1.50Q12.49 3.00 12.49 5.70Q12.49 8.40 11.07 10.08Q9.66 11.76 6.78 11.76L6.78 11.76Q5.66 11.76 4.56 11.34L4.56 11.34Q4.56 10.58 4.76 9.94Q4.96 9.30 5.15 9.07Z" transform="translate(43.712, 74.5)"></path></svg>