<?xml version="1.0" standalone="no"?>
<svg xmlns="http://www.w3.org/2000/svg" viewBox="0 0 127 69" width="127" height="69"><g fill="#ffd500" color="#ffd500" transform="translate(41.433 0) scale(0.44) "><svg width="100.0" height="100.0" x="0.0" y="0.0" viewBox="0 0 100 100"><g><g><path d="M81.461,96H19.867c-1.135,0-2.172-0.64-2.681-1.653l-4.867-9.69C12.109,84.238,12,83.777,12,83.31V7c0-1.657,1.343-3,3-3    h70c1.657,0,3,1.343,3,3v76.31c0,0.351-0.062,0.699-0.182,1.029l-3.539,9.69C83.847,95.213,82.721,96,81.461,96z M21.718,90    h57.645L82,82.779V10H18v72.599L21.718,90z"></path></g><g><path d="M75,56H26c-1.657,0-3-1.343-3-3V17c0-1.657,1.343-3,3-3h49c1.657,0,3,1.343,3,3v36C78,54.657,76.657,56,75,56z M29,50h43    V20H29V50z"></path></g><g><g><rect x="45" y="68" width="32" height="2"></rect><path d="M77.5,71h-32c-0.828,0-1.5-0.672-1.5-1.5v-2c0-0.828,0.672-1.5,1.5-1.5h32c0.828,0,1.5,0.672,1.5,1.5v2     C79,70.328,78.328,71,77.5,71z"></path></g><g><rect x="67" y="66" width="10" height="5"></rect><path d="M77.5,72h-10c-0.828,0-1.5-0.672-1.5-1.5v-5c0-0.828,0.672-1.5,1.5-1.5h10c0.828,0,1.5,0.672,1.5,1.5v5     C79,71.328,78.328,72,77.5,72z M69,69h7v-2h-7V69z"></path></g></g><g><rect x="24" y="77" width="5" height="3"></rect><path d="M29.5,81h-5c-0.828,0-1.5-0.672-1.5-1.5v-3c0-0.828,0.672-1.5,1.5-1.5h5c0.828,0,1.5,0.672,1.5,1.5v3    C31,80.328,30.328,81,29.5,81z M26,78h2H26z"></path></g></g></svg></g><path fill="#000" fill-rule="nonzero" d="M4.42 7.78L4.42 7.78Q5.11 8.47 6.08 8.47Q7.06 8.47 7.66 7.87L7.66 7.87Q8.62 6.89 8.62 4.94L8.62 4.94Q8.62 1.37 5.45 1.37L5.45 1.37Q4.44 1.37 3.19 1.90L3.19 1.90Q3.02 3.79 3.02 7.80Q3.02 11.81 3.24 14.33L3.24 14.33L4.61 14.42Q4.66 14.81 4.66 15.12Q4.66 15.43 4.58 15.74L4.58 15.74Q3.72 15.72 2.34 15.72Q0.96 15.72 0.22 15.74L0.22 15.74Q0.14 15.38 0.14 15.11Q0.14 14.83 0.19 14.40L0.19 14.40L1.03 14.33Q1.22 11.76 1.22 7.76Q1.22 3.77 0.98 1.82L0.98 1.82L0.07 1.75Q0 1.42 0 1.01Q0 0.60 0.02 0.41L0.02 0.41Q1.03 0.36 2.78 0.19L2.78 0.19Q4.01 0 5.47 0L5.47 0Q8.30 0 9.50 1.28Q10.70 2.57 10.70 4.88Q10.70 7.20 9.49 8.64Q8.28 10.08 5.81 10.08L5.81 10.08Q4.85 10.08 3.91 9.72L3.91 9.72Q3.91 9.07 4.08 8.52Q4.25 7.97 4.42 7.78ZM22.78 9.10L22.78 9.10Q22.78 3.91 22.54 1.70L22.54 1.70L21.70 1.63Q21.65 1.25 21.65 0.97Q21.65 0.70 21.72 0.29L21.72 0.29Q22.49 0.31 23.50 0.31Q24.50 0.31 25.25 0.29L25.25 0.29Q25.32 0.65 25.32 0.92Q25.32 1.20 25.27 1.63L25.27 1.63L24.48 1.70Q24.29 4.06 24.29 7.28Q24.29 10.51 24.19 11.48Q24.10 12.46 23.77 13.39Q23.45 14.33 22.87 14.88L22.87 14.88Q21.62 16.08 18.98 16.08L18.98 16.08Q15.60 16.08 14.54 14.18L14.54 14.18Q14.02 13.18 13.84 12.02Q13.66 10.87 13.66 7.39Q13.66 3.91 13.42 1.70L13.42 1.70L12.55 1.63Q12.50 1.25 12.50 0.97Q12.50 0.70 12.58 0.29L12.58 0.29Q13.42 0.31 14.52 0.31Q15.62 0.31 16.44 0.29L16.44 0.29Q16.51 0.65 16.51 0.92Q16.51 1.20 16.46 1.63L16.46 1.63L15.65 1.70Q15.46 4.06 15.46 9.10L15.46 9.10Q15.46 11.78 16.20 13.04Q16.94 14.30 19.15 14.30Q21.36 14.30 22.07 13.04Q22.78 11.78 22.78 9.10ZM33.41 1.94L33.41 1.94Q33.24 3.82 33.24 7.96Q33.24 12.10 33.43 14.33L33.43 14.33L34.82 14.47Q34.87 14.86 34.87 15.08Q34.87 15.31 34.80 15.74L34.80 15.74Q33.94 15.72 32.32 15.72Q30.70 15.72 29.95 15.74L29.95 15.74Q29.88 15.38 29.88 15.14Q29.88 14.90 29.93 14.47L29.93 14.47L31.25 14.33Q31.44 11.76 31.44 7.81Q31.44 3.86 31.22 1.94L31.22 1.94Q30.29 1.97 28.63 2.11L28.63 2.11L28.56 3.89Q28.18 3.96 27.84 3.96Q27.50 3.96 27.22 3.94L27.22 3.94Q27.14 1.97 27 0.29L27 0.29L27.12 0.17Q28.90 0.38 32.81 0.38Q36.72 0.38 37.70 0.17L37.70 0.17L37.82 0.29Q37.66 2.14 37.61 3.70L37.61 3.70Q37.32 3.72 37.00 3.72Q36.67 3.72 36.26 3.65L36.26 3.65L36.19 2.04Q35.18 1.99 33.41 1.94ZM46.94 1.70L46.06 1.63Q46.01 1.25 46.01 0.97Q46.01 0.70 46.08 0.29L46.08 0.29Q46.85 0.31 47.99 0.31Q49.13 0.31 49.97 0.29L49.97 0.29Q50.04 0.70 50.04 1.04Q50.04 1.39 49.99 1.63L49.99 1.63L49.15 1.70Q45.86 8.78 45.26 11.06L45.26 11.06Q45.34 12.89 45.46 14.33L45.46 14.33L46.32 14.40Q46.37 14.78 46.37 15.06Q46.37 15.34 46.30 15.74L46.30 15.74Q45.46 15.72 44.35 15.72Q43.25 15.72 42.43 15.74L42.43 15.74Q42.36 15.38 42.36 15.11Q42.36 14.83 42.41 14.40L42.41 14.40L43.25 14.33Q43.39 12.24 43.42 11.02L43.42 11.02Q42.79 8.95 40.06 3.48L40.06 3.48Q39.29 1.99 39.14 1.70L39.14 1.70L38.26 1.63Q38.21 1.25 38.21 0.97Q38.21 0.70 38.28 0.29L38.28 0.29Q39.12 0.31 40.36 0.31Q41.59 0.31 42.41 0.29L42.41 0.29Q42.48 0.65 42.48 0.92Q42.48 1.20 42.43 1.63L42.43 1.63L41.57 1.70Q42.02 3.41 43.08 5.71Q44.14 8.02 44.42 8.69L44.42 8.69L44.52 8.69Q45.17 7.44 45.89 5.44Q46.61 3.43 46.94 1.70L46.94 1.70ZM52.08 11.04Q52.82 11.04 53.23 11.50Q53.64 11.95 53.64 12.61Q53.64 13.27 53.42 13.68L53.42 13.68Q54.48 14.54 55.86 14.54Q57.24 14.54 57.94 13.91Q58.63 13.27 58.63 12.17Q58.63 11.06 57.86 10.27Q57.10 9.48 56.00 8.95Q54.91 8.42 53.83 7.84Q52.75 7.25 51.98 6.26Q51.22 5.28 51.22 3.94L51.22 3.94Q51.22 2.09 52.44 1.04Q53.66 0 55.58 0Q57.50 0 58.91 0.91Q60.31 1.82 60.31 3.37Q60.31 4.92 59.06 4.92L59.06 4.92Q58.32 4.92 57.91 4.46Q57.50 4.01 57.50 3.29Q57.50 2.57 57.79 2.18L57.79 2.18Q56.95 1.42 55.73 1.42Q54.50 1.42 53.89 2.04Q53.28 2.66 53.28 3.60Q53.28 4.54 53.83 5.20Q54.38 5.86 55.20 6.28Q56.02 6.70 56.98 7.24Q57.94 7.78 58.75 8.30Q59.57 8.83 60.12 9.73Q60.67 10.63 60.67 11.78L60.67 11.78Q60.67 13.68 59.36 14.88Q58.06 16.08 56.02 16.08Q53.98 16.08 52.40 15.13Q50.83 14.18 50.83 12.48L50.83 12.48Q50.83 11.04 52.08 11.04L52.08 11.04ZM70.37 6.89L70.44 5.98Q70.97 5.93 71.16 5.93Q71.35 5.93 71.78 6L71.78 6Q71.76 6.74 71.76 7.92Q71.76 9.10 71.78 9.46L71.78 9.46Q71.42 9.53 71.09 9.53Q70.75 9.53 70.44 9.48L70.44 9.48L70.37 8.64Q69.07 8.59 68.23 8.59Q67.39 8.59 66.10 8.64L66.10 8.64Q66.10 11.78 66.26 13.90L66.26 13.90Q67.10 13.97 68.65 13.97Q70.20 13.97 71.09 13.85L71.09 13.85L71.16 12.22Q71.57 12.14 71.92 12.14Q72.26 12.14 72.50 12.17L72.50 12.17Q72.53 14.04 72.72 15.72L72.72 15.72L72.60 15.84Q71.42 15.72 67.45 15.72Q63.48 15.72 63.26 15.74L63.26 15.74Q63.19 15.38 63.19 15.06Q63.19 14.74 63.24 14.40L63.24 14.40L64.08 14.33Q64.30 10.61 64.30 7.60Q64.30 4.58 64.01 1.78L64.01 1.78L63.19 1.70Q63.14 1.39 63.14 1.06Q63.14 0.72 63.22 0.36L63.22 0.36Q63.82 0.38 67.61 0.38Q71.40 0.38 72.48 0.17L72.48 0.17L72.60 0.29Q72.41 2.40 72.38 3.70L72.38 3.70Q72.14 3.72 71.78 3.72Q71.42 3.72 71.04 3.65L71.04 3.65L70.97 2.02Q69.74 1.94 68.42 1.94Q67.10 1.94 66.24 2.02L66.24 2.02Q66.10 3.53 66.10 6.96L66.10 6.96Q66.48 6.98 67.66 6.98Q68.83 6.98 70.37 6.89L70.37 6.89ZM80.02 7.34L80.02 7.34Q80.71 7.99 81.78 7.99Q82.85 7.99 83.53 7.09Q84.22 6.19 84.22 4.70L84.22 4.70Q84.22 1.37 81.05 1.37L81.05 1.37Q79.97 1.37 78.79 1.85L78.79 1.85Q78.62 3.94 78.62 7.78Q78.62 11.62 78.84 14.33L78.84 14.33L79.73 14.40Q79.78 14.93 79.78 15.13Q79.78 15.34 79.70 15.74L79.70 15.74Q79.01 15.72 77.66 15.72Q76.32 15.72 75.82 15.74L75.82 15.74Q75.74 15.38 75.74 15.06Q75.74 14.74 75.79 14.40L75.79 14.40L76.63 14.33Q76.82 11.69 76.82 7.70Q76.82 3.72 76.58 1.82L76.58 1.82L75.67 1.75Q75.60 1.46 75.60 1.01Q75.60 0.55 75.62 0.41L75.62 0.41Q77.23 0.36 78.46 0.18Q79.68 0 81.07 0L81.07 0Q86.30 0 86.30 4.70L86.30 4.70Q86.30 6.60 85.37 7.82Q84.43 9.05 82.75 9.36L82.75 9.36Q85.13 13.13 86.04 14.21L86.04 14.21L87.17 14.28Q87.22 14.66 87.22 14.99Q87.22 15.31 87.14 15.67L87.14 15.67Q84.96 15.74 84.10 15.79L84.10 15.79L84 15.53Q83.59 14.52 83.00 13.43Q82.42 12.34 80.54 9.41L80.54 9.41Q80.04 9.38 79.51 9.14L79.51 9.14Q79.51 8.66 79.67 8.10Q79.82 7.54 80.02 7.34ZM88.54 1.70L87.65 1.63Q87.60 1.25 87.60 0.97Q87.60 0.70 87.67 0.29L87.67 0.29Q88.51 0.31 89.77 0.31Q91.03 0.31 91.94 0.29L91.94 0.29Q92.02 0.65 92.02 0.92Q92.02 1.20 91.97 1.63L91.97 1.63L91.13 1.70Q91.63 4.44 92.59 7.84Q93.55 11.23 94.54 13.63L94.54 13.63L94.68 13.63Q95.54 11.52 96.54 7.85Q97.54 4.18 97.94 1.70L97.94 1.70L97.06 1.63Q97.01 1.44 97.01 1.07Q97.01 0.70 97.08 0.29L97.08 0.29Q97.94 0.31 99.17 0.31Q100.39 0.31 101.14 0.29L101.14 0.29Q101.21 0.65 101.21 0.90Q101.21 1.15 101.16 1.63L101.16 1.63L100.32 1.70Q99.24 4.58 97.72 9.10Q96.19 13.61 95.66 15.72L95.66 15.72Q94.80 15.94 94.09 15.94Q93.38 15.94 93.17 15.91L93.17 15.91Q90.70 7.06 88.54 1.70L88.54 1.70ZM110.02 6.89L110.09 5.98Q110.62 5.93 110.81 5.93Q111.00 5.93 111.43 6L111.43 6Q111.41 6.74 111.41 7.92Q111.41 9.10 111.43 9.46L111.43 9.46Q111.07 9.53 110.74 9.53Q110.40 9.53 110.09 9.48L110.09 9.48L110.02 8.64Q108.72 8.59 107.88 8.59Q107.04 8.59 105.74 8.64L105.74 8.64Q105.74 11.78 105.91 13.90L105.91 13.90Q106.75 13.97 108.30 13.97Q109.85 13.97 110.74 13.85L110.74 13.85L110.81 12.22Q111.22 12.14 111.56 12.14Q111.91 12.14 112.15 12.17L112.15 12.17Q112.18 14.04 112.37 15.72L112.37 15.72L112.25 15.84Q111.07 15.72 107.10 15.72Q103.13 15.72 102.91 15.74L102.91 15.74Q102.84 15.38 102.84 15.06Q102.84 14.74 102.89 14.40L102.89 14.40L103.73 14.33Q103.94 10.61 103.94 7.60Q103.94 4.58 103.66 1.78L103.66 1.78L102.84 1.70Q102.79 1.39 102.79 1.06Q102.79 0.72 102.86 0.36L102.86 0.36Q103.46 0.38 107.26 0.38Q111.05 0.38 112.13 0.17L112.13 0.17L112.25 0.29Q112.06 2.40 112.03 3.70L112.03 3.70Q111.79 3.72 111.43 3.72Q111.07 3.72 110.69 3.65L110.69 3.65L110.62 2.02Q109.39 1.94 108.07 1.94Q106.75 1.94 105.89 2.02L105.89 2.02Q105.74 3.53 105.74 6.96L105.74 6.96Q106.13 6.98 107.30 6.98Q108.48 6.98 110.02 6.89L110.02 6.89ZM119.66 7.34L119.66 7.34Q120.36 7.99 121.43 7.99Q122.50 7.99 123.18 7.09Q123.86 6.19 123.86 4.70L123.86 4.70Q123.86 1.37 120.70 1.37L120.70 1.37Q119.62 1.37 118.44 1.85L118.44 1.85Q118.27 3.94 118.27 7.78Q118.27 11.62 118.49 14.33L118.49 14.33L119.38 14.40Q119.42 14.93 119.42 15.13Q119.42 15.34 119.35 15.74L119.35 15.74Q118.66 15.72 117.31 15.72Q115.97 15.72 115.46 15.74L115.46 15.74Q115.39 15.38 115.39 15.06Q115.39 14.74 115.44 14.40L115.44 14.40L116.28 14.33Q116.47 11.69 116.47 7.70Q116.47 3.72 116.23 1.82L116.23 1.82L115.32 1.75Q115.25 1.46 115.25 1.01Q115.25 0.55 115.27 0.41L115.27 0.41Q116.88 0.36 118.10 0.18Q119.33 0 120.72 0L120.72 0Q125.95 0 125.95 4.70L125.95 4.70Q125.95 6.60 125.02 7.82Q124.08 9.05 122.40 9.36L122.40 9.36Q124.78 13.13 125.69 14.21L125.69 14.21L126.82 14.28Q126.86 14.66 126.86 14.99Q126.86 15.31 126.79 15.67L126.79 15.67Q124.61 15.74 123.74 15.79L123.74 15.79L123.65 15.53Q123.24 14.52 122.65 13.43Q122.06 12.34 120.19 9.41L120.19 9.41Q119.69 9.38 119.16 9.14L119.16 9.14Q119.16 8.66 119.32 8.10Q119.47 7.54 119.66 7.34Z" transform="translate(0, 52)"></path></svg>